<svg width="32" height="32" xmlns="http://www.w3.org/2000/svg">
 <title/>

 <g>
  <title>background</title>
  <rect fill="none" id="canvas_background" height="402" width="582" y="-1" x="-1"/>
 </g>
 <g>
  <title>Layer 1</title>
  <path id="svg_1" d="m29,6l-26,0l-0.08,0a0.78,0.78 0 0 0 -0.21,0l-0.17,0.07a0.65,0.65 0 0 0 -0.15,0.1a0.67,0.67 0 0 0 -0.15,0.14l-0.06,0.06a0.36,0.36 0 0 0 0,0.09a1.08,1.08 0 0 0 -0.08,0.19a1.29,1.29 0 0 0 -0.1,0.25s0,0.1 0,0.1l0,18a1,1 0 0 0 1,1l26,0a1,1 0 0 0 1,-1l0,-18a1,1 0 0 0 -1,-1zm-13,8.81l-9.8,-6.81l20.89,0l-11.09,6.81zm-12,9.19l0,-15.09l11.43,7.91l0,0a1.51,1.51 0 0 0 0.18,0.09l0.08,0a1.09,1.09 0 0 0 0.31,0.09l0,0a1,1 0 0 0 0.41,-0.1l0.07,0l0,0l11.52,-7.11l0,14.21l-24,0z"/>
 </g>
</svg>