<svg width="25.999999999999996" height="25.999999999999996" xmlns="http://www.w3.org/2000/svg">

 <g>
  <title>background</title>
  <rect fill="none" id="canvas_background" height="402" width="582" y="-1" x="-1"/>
 </g>
 <g>
  <title>Layer 1</title>
  <path id="svg_1" fill="#1D1D1B" d="m24.49707,19.23633c-0.40332,-0.6582 -1.0293,-1.42481 -1.76465,-2.15918c-0.53222,-0.53223 -2.35937,-2.26758 -3.53418,-2.26758c-0.37695,0 -0.61621,0.16113 -0.75,0.29492l-1.56445,1.56348c-0.02637,0.02637 -0.11035,0.05664 -0.26172,0.05664c-0.86816,0 -2.70898,-0.96094 -4.54785,-2.79883c-2.45215,-2.45312 -3.04199,-4.50976 -2.74219,-4.80957l1.5625,-1.56348c0.13477,-0.13476 0.2959,-0.37402 0.2959,-0.75c0.00098,-1.17578 -1.73535,-3.00293 -2.26758,-3.53515c-0.53125,-0.53223 -2.35742,-2.26758 -3.53418,-2.26758c-0.37597,0 -0.61523,0.16016 -0.75,0.29492l-3.12793,3.12793c-0.92383,0.92285 -0.58691,2.72852 1.00196,5.36621c1.3789,2.28907 3.56152,4.97266 6.14355,7.55469c4.58008,4.58008 9.21777,7.65723 11.54004,7.65625c0.57812,0 1.04199,-0.17187 1.38086,-0.51074l3.12793,-3.12793c0.67676,-0.67676 0.01074,-1.7666 -0.20801,-2.125zm-3.98047,4.19238c-0.03515,0.03418 -0.13672,0.07129 -0.32031,0.07129c-1.58106,0 -5.79102,-2.5293 -10.47949,-7.2168c-2.49903,-2.49902 -4.60059,-5.08007 -5.91895,-7.26855c-1.48535,-2.46485 -1.3457,-3.41211 -1.22656,-3.53125l2.94434,-2.94434c0.38378,0.14844 1.27343,0.71485 2.34667,1.78907s1.64063,1.96289 1.78907,2.34667l-1.37989,1.38086c-1.43847,1.43848 0.41309,4.60059 2.74219,6.93067c1.99805,1.99805 4.14746,3.23828 5.6084,3.23828c0.68262,0 1.0957,-0.26953 1.32227,-0.49609l1.38086,-1.37989c0.38378,0.14844 1.27246,0.71582 2.34668,1.78907c1.07324,1.07324 1.64062,1.96289 1.78906,2.34668l-2.94434,2.94433z"/>
 </g>
</svg>